<svg xmlns="http://www.w3.org/2000/svg" xmlns:xlink="http://www.w3.org/1999/xlink" width="180" zoomAndPan="magnify" viewBox="0 0 135 43.499998" height="58" preserveAspectRatio="xMidYMid meet" version="1.0"><defs><g/></defs><g fill="#d32f23" fill-opacity="0.4196"><g transform="translate(56.852695, 20.337185)"><g><path d="M 2.390625 0.09375 C 1.734375 0.09375 1.210938 -0.0703125 0.828125 -0.40625 C 0.441406 -0.75 0.25 -1.207031 0.25 -1.78125 C 0.25 -1.832031 0.257812 -1.925781 0.28125 -2.0625 L 0.328125 -2.421875 C 0.328125 -2.472656 0.34375 -2.515625 0.375 -2.546875 C 0.414062 -2.578125 0.457031 -2.59375 0.5 -2.59375 L 2.25 -2.59375 C 2.289062 -2.59375 2.320312 -2.578125 2.34375 -2.546875 C 2.375 -2.515625 2.390625 -2.472656 2.390625 -2.421875 L 2.359375 -2.171875 C 2.347656 -2.046875 2.363281 -1.941406 2.40625 -1.859375 C 2.457031 -1.785156 2.523438 -1.75 2.609375 -1.75 C 2.710938 -1.75 2.796875 -1.789062 2.859375 -1.875 C 2.929688 -1.957031 2.96875 -2.0625 2.96875 -2.1875 C 2.96875 -2.300781 2.910156 -2.421875 2.796875 -2.546875 C 2.691406 -2.671875 2.484375 -2.859375 2.171875 -3.109375 C 1.859375 -3.359375 1.601562 -3.582031 1.40625 -3.78125 C 1.207031 -3.976562 1.035156 -4.21875 0.890625 -4.5 C 0.742188 -4.789062 0.671875 -5.117188 0.671875 -5.484375 C 0.671875 -5.546875 0.679688 -5.664062 0.703125 -5.84375 C 0.785156 -6.519531 1.066406 -7.066406 1.546875 -7.484375 C 2.023438 -7.910156 2.625 -8.125 3.34375 -8.125 C 4 -8.125 4.515625 -7.945312 4.890625 -7.59375 C 5.273438 -7.238281 5.46875 -6.765625 5.46875 -6.171875 C 5.46875 -6.097656 5.460938 -5.988281 5.453125 -5.84375 L 5.40625 -5.578125 C 5.40625 -5.523438 5.382812 -5.484375 5.34375 -5.453125 C 5.3125 -5.421875 5.273438 -5.40625 5.234375 -5.40625 L 3.5 -5.40625 C 3.445312 -5.40625 3.40625 -5.421875 3.375 -5.453125 C 3.351562 -5.484375 3.347656 -5.523438 3.359375 -5.578125 L 3.390625 -5.890625 C 3.398438 -6.003906 3.378906 -6.09375 3.328125 -6.15625 C 3.273438 -6.226562 3.207031 -6.265625 3.125 -6.265625 C 3.007812 -6.265625 2.914062 -6.21875 2.84375 -6.125 C 2.78125 -6.039062 2.75 -5.921875 2.75 -5.765625 C 2.75 -5.640625 2.800781 -5.503906 2.90625 -5.359375 C 3.019531 -5.222656 3.222656 -5.035156 3.515625 -4.796875 C 3.898438 -4.460938 4.195312 -4.191406 4.40625 -3.984375 C 4.613281 -3.785156 4.773438 -3.566406 4.890625 -3.328125 C 5.003906 -3.085938 5.0625 -2.816406 5.0625 -2.515625 C 5.0625 -2.453125 5.054688 -2.34375 5.046875 -2.1875 C 4.953125 -1.488281 4.660156 -0.929688 4.171875 -0.515625 C 3.691406 -0.109375 3.097656 0.09375 2.390625 0.09375 Z M 2.390625 0.09375 "/></g></g></g><g fill="#d32f23" fill-opacity="0.4196"><g transform="translate(62.003285, 20.337185)"><g><path d="M 2.453125 0.09375 C 1.773438 0.09375 1.238281 -0.0859375 0.84375 -0.453125 C 0.457031 -0.828125 0.265625 -1.332031 0.265625 -1.96875 C 0.265625 -2.050781 0.269531 -2.179688 0.28125 -2.359375 L 0.703125 -5.671875 C 0.796875 -6.421875 1.09375 -7.015625 1.59375 -7.453125 C 2.09375 -7.898438 2.71875 -8.125 3.46875 -8.125 C 4.132812 -8.125 4.664062 -7.9375 5.0625 -7.5625 C 5.457031 -7.1875 5.65625 -6.6875 5.65625 -6.0625 C 5.65625 -5.976562 5.644531 -5.847656 5.625 -5.671875 L 5.234375 -2.359375 C 5.140625 -1.609375 4.835938 -1.007812 4.328125 -0.5625 C 3.828125 -0.125 3.203125 0.09375 2.453125 0.09375 Z M 2.6875 -1.75 C 2.800781 -1.75 2.894531 -1.796875 2.96875 -1.890625 C 3.050781 -1.984375 3.101562 -2.109375 3.125 -2.265625 L 3.5625 -5.75 C 3.570312 -5.914062 3.550781 -6.039062 3.5 -6.125 C 3.445312 -6.21875 3.363281 -6.265625 3.25 -6.265625 C 3.125 -6.265625 3.019531 -6.21875 2.9375 -6.125 C 2.863281 -6.039062 2.816406 -5.914062 2.796875 -5.75 L 2.375 -2.265625 C 2.363281 -2.234375 2.359375 -2.191406 2.359375 -2.140625 C 2.359375 -2.023438 2.382812 -1.929688 2.4375 -1.859375 C 2.5 -1.785156 2.582031 -1.75 2.6875 -1.75 Z M 2.6875 -1.75 "/></g></g></g><g fill="#d32f23" fill-opacity="0.4196"><g transform="translate(67.383298, 20.337185)"><g><path d="M 2.421875 0.09375 C 1.753906 0.09375 1.226562 -0.0859375 0.84375 -0.453125 C 0.457031 -0.828125 0.265625 -1.332031 0.265625 -1.96875 C 0.265625 -2.039062 0.269531 -2.164062 0.28125 -2.34375 L 0.703125 -5.703125 C 0.796875 -6.441406 1.085938 -7.03125 1.578125 -7.46875 C 2.078125 -7.90625 2.691406 -8.125 3.421875 -8.125 C 4.085938 -8.125 4.613281 -7.941406 5 -7.578125 C 5.394531 -7.210938 5.59375 -6.710938 5.59375 -6.078125 C 5.59375 -6.003906 5.585938 -5.878906 5.578125 -5.703125 L 5.5625 -5.640625 C 5.550781 -5.585938 5.53125 -5.539062 5.5 -5.5 C 5.46875 -5.46875 5.425781 -5.453125 5.375 -5.453125 L 3.609375 -5.40625 C 3.492188 -5.40625 3.445312 -5.457031 3.46875 -5.5625 L 3.5 -5.84375 C 3.507812 -5.976562 3.488281 -6.082031 3.4375 -6.15625 C 3.382812 -6.226562 3.3125 -6.265625 3.21875 -6.265625 C 3.101562 -6.265625 3.007812 -6.226562 2.9375 -6.15625 C 2.863281 -6.082031 2.820312 -5.976562 2.8125 -5.84375 L 2.359375 -2.171875 C 2.347656 -2.046875 2.363281 -1.941406 2.40625 -1.859375 C 2.457031 -1.785156 2.539062 -1.75 2.65625 -1.75 C 2.757812 -1.75 2.847656 -1.785156 2.921875 -1.859375 C 2.992188 -1.929688 3.035156 -2.035156 3.046875 -2.171875 L 3.078125 -2.484375 C 3.085938 -2.535156 3.109375 -2.570312 3.140625 -2.59375 C 3.179688 -2.625 3.222656 -2.640625 3.265625 -2.640625 L 5.015625 -2.578125 C 5.078125 -2.578125 5.117188 -2.5625 5.140625 -2.53125 C 5.171875 -2.5 5.179688 -2.453125 5.171875 -2.390625 L 5.15625 -2.34375 C 5.0625 -1.601562 4.765625 -1.007812 4.265625 -0.5625 C 3.765625 -0.125 3.148438 0.09375 2.421875 0.09375 Z M 2.421875 0.09375 "/></g></g></g><g fill="#d32f23" fill-opacity="0.4196"><g transform="translate(72.683011, 20.337185)"><g><path d="M 0.234375 0 C 0.179688 0 0.140625 -0.015625 0.109375 -0.046875 C 0.0859375 -0.078125 0.0820312 -0.117188 0.09375 -0.171875 L 1.03125 -7.859375 C 1.039062 -7.910156 1.0625 -7.953125 1.09375 -7.984375 C 1.125 -8.015625 1.164062 -8.03125 1.21875 -8.03125 L 2.984375 -8.03125 C 3.023438 -8.03125 3.054688 -8.015625 3.078125 -7.984375 C 3.109375 -7.953125 3.125 -7.910156 3.125 -7.859375 L 2.171875 -0.171875 C 2.171875 -0.117188 2.148438 -0.078125 2.109375 -0.046875 C 2.078125 -0.015625 2.039062 0 2 0 Z M 0.234375 0 "/></g></g></g><g fill="#d32f23" fill-opacity="0.4196"><g transform="translate(75.355812, 20.337185)"><g><path d="M 2.453125 0.09375 C 1.773438 0.09375 1.238281 -0.0859375 0.84375 -0.453125 C 0.457031 -0.828125 0.265625 -1.332031 0.265625 -1.96875 C 0.265625 -2.050781 0.269531 -2.179688 0.28125 -2.359375 L 0.703125 -5.671875 C 0.796875 -6.421875 1.09375 -7.015625 1.59375 -7.453125 C 2.09375 -7.898438 2.71875 -8.125 3.46875 -8.125 C 4.132812 -8.125 4.664062 -7.9375 5.0625 -7.5625 C 5.457031 -7.1875 5.65625 -6.6875 5.65625 -6.0625 C 5.65625 -5.976562 5.644531 -5.847656 5.625 -5.671875 L 5.234375 -2.359375 C 5.140625 -1.609375 4.835938 -1.007812 4.328125 -0.5625 C 3.828125 -0.125 3.203125 0.09375 2.453125 0.09375 Z M 2.6875 -1.75 C 2.800781 -1.75 2.894531 -1.796875 2.96875 -1.890625 C 3.050781 -1.984375 3.101562 -2.109375 3.125 -2.265625 L 3.5625 -5.75 C 3.570312 -5.914062 3.550781 -6.039062 3.5 -6.125 C 3.445312 -6.21875 3.363281 -6.265625 3.25 -6.265625 C 3.125 -6.265625 3.019531 -6.21875 2.9375 -6.125 C 2.863281 -6.039062 2.816406 -5.914062 2.796875 -5.75 L 2.375 -2.265625 C 2.363281 -2.234375 2.359375 -2.191406 2.359375 -2.140625 C 2.359375 -2.023438 2.382812 -1.929688 2.4375 -1.859375 C 2.5 -1.785156 2.582031 -1.75 2.6875 -1.75 Z M 2.6875 -1.75 "/></g></g></g><g fill="#000000" fill-opacity="1"><g transform="translate(56.51167, 20.030124)"><g><path d="M 2.390625 0.09375 C 1.734375 0.09375 1.210938 -0.0703125 0.828125 -0.40625 C 0.441406 -0.75 0.25 -1.207031 0.25 -1.78125 C 0.25 -1.832031 0.257812 -1.925781 0.28125 -2.0625 L 0.328125 -2.421875 C 0.328125 -2.472656 0.34375 -2.515625 0.375 -2.546875 C 0.414062 -2.578125 0.457031 -2.59375 0.5 -2.59375 L 2.25 -2.59375 C 2.289062 -2.59375 2.320312 -2.578125 2.34375 -2.546875 C 2.375 -2.515625 2.390625 -2.472656 2.390625 -2.421875 L 2.359375 -2.171875 C 2.347656 -2.046875 2.363281 -1.941406 2.40625 -1.859375 C 2.457031 -1.785156 2.523438 -1.75 2.609375 -1.75 C 2.710938 -1.75 2.796875 -1.789062 2.859375 -1.875 C 2.929688 -1.957031 2.96875 -2.0625 2.96875 -2.1875 C 2.96875 -2.300781 2.910156 -2.421875 2.796875 -2.546875 C 2.691406 -2.671875 2.484375 -2.859375 2.171875 -3.109375 C 1.859375 -3.359375 1.601562 -3.582031 1.40625 -3.78125 C 1.207031 -3.976562 1.035156 -4.21875 0.890625 -4.5 C 0.742188 -4.789062 0.671875 -5.117188 0.671875 -5.484375 C 0.671875 -5.546875 0.679688 -5.664062 0.703125 -5.84375 C 0.785156 -6.519531 1.066406 -7.066406 1.546875 -7.484375 C 2.023438 -7.910156 2.625 -8.125 3.34375 -8.125 C 4 -8.125 4.515625 -7.945312 4.890625 -7.59375 C 5.273438 -7.238281 5.46875 -6.765625 5.46875 -6.171875 C 5.46875 -6.097656 5.460938 -5.988281 5.453125 -5.84375 L 5.40625 -5.578125 C 5.40625 -5.523438 5.382812 -5.484375 5.34375 -5.453125 C 5.3125 -5.421875 5.273438 -5.40625 5.234375 -5.40625 L 3.5 -5.40625 C 3.445312 -5.40625 3.40625 -5.421875 3.375 -5.453125 C 3.351562 -5.484375 3.347656 -5.523438 3.359375 -5.578125 L 3.390625 -5.890625 C 3.398438 -6.003906 3.378906 -6.09375 3.328125 -6.15625 C 3.273438 -6.226562 3.207031 -6.265625 3.125 -6.265625 C 3.007812 -6.265625 2.914062 -6.21875 2.84375 -6.125 C 2.78125 -6.039062 2.75 -5.921875 2.75 -5.765625 C 2.75 -5.640625 2.800781 -5.503906 2.90625 -5.359375 C 3.019531 -5.222656 3.222656 -5.035156 3.515625 -4.796875 C 3.898438 -4.460938 4.195312 -4.191406 4.40625 -3.984375 C 4.613281 -3.785156 4.773438 -3.566406 4.890625 -3.328125 C 5.003906 -3.085938 5.0625 -2.816406 5.0625 -2.515625 C 5.0625 -2.453125 5.054688 -2.34375 5.046875 -2.1875 C 4.953125 -1.488281 4.660156 -0.929688 4.171875 -0.515625 C 3.691406 -0.109375 3.097656 0.09375 2.390625 0.09375 Z M 2.390625 0.09375 "/></g></g></g><g fill="#000000" fill-opacity="1"><g transform="translate(61.66226, 20.030124)"><g><path d="M 2.453125 0.09375 C 1.773438 0.09375 1.238281 -0.0859375 0.84375 -0.453125 C 0.457031 -0.828125 0.265625 -1.332031 0.265625 -1.96875 C 0.265625 -2.050781 0.269531 -2.179688 0.28125 -2.359375 L 0.703125 -5.671875 C 0.796875 -6.421875 1.09375 -7.015625 1.59375 -7.453125 C 2.09375 -7.898438 2.71875 -8.125 3.46875 -8.125 C 4.132812 -8.125 4.664062 -7.9375 5.0625 -7.5625 C 5.457031 -7.1875 5.65625 -6.6875 5.65625 -6.0625 C 5.65625 -5.976562 5.644531 -5.847656 5.625 -5.671875 L 5.234375 -2.359375 C 5.140625 -1.609375 4.835938 -1.007812 4.328125 -0.5625 C 3.828125 -0.125 3.203125 0.09375 2.453125 0.09375 Z M 2.6875 -1.75 C 2.800781 -1.75 2.894531 -1.796875 2.96875 -1.890625 C 3.050781 -1.984375 3.101562 -2.109375 3.125 -2.265625 L 3.5625 -5.75 C 3.570312 -5.914062 3.550781 -6.039062 3.5 -6.125 C 3.445312 -6.21875 3.363281 -6.265625 3.25 -6.265625 C 3.125 -6.265625 3.019531 -6.21875 2.9375 -6.125 C 2.863281 -6.039062 2.816406 -5.914062 2.796875 -5.75 L 2.375 -2.265625 C 2.363281 -2.234375 2.359375 -2.191406 2.359375 -2.140625 C 2.359375 -2.023438 2.382812 -1.929688 2.4375 -1.859375 C 2.5 -1.785156 2.582031 -1.75 2.6875 -1.75 Z M 2.6875 -1.75 "/></g></g></g><g fill="#000000" fill-opacity="1"><g transform="translate(67.042273, 20.030124)"><g><path d="M 2.421875 0.09375 C 1.753906 0.09375 1.226562 -0.0859375 0.84375 -0.453125 C 0.457031 -0.828125 0.265625 -1.332031 0.265625 -1.96875 C 0.265625 -2.039062 0.269531 -2.164062 0.28125 -2.34375 L 0.703125 -5.703125 C 0.796875 -6.441406 1.085938 -7.03125 1.578125 -7.46875 C 2.078125 -7.90625 2.691406 -8.125 3.421875 -8.125 C 4.085938 -8.125 4.613281 -7.941406 5 -7.578125 C 5.394531 -7.210938 5.59375 -6.710938 5.59375 -6.078125 C 5.59375 -6.003906 5.585938 -5.878906 5.578125 -5.703125 L 5.5625 -5.640625 C 5.550781 -5.585938 5.53125 -5.539062 5.5 -5.5 C 5.46875 -5.46875 5.425781 -5.453125 5.375 -5.453125 L 3.609375 -5.40625 C 3.492188 -5.40625 3.445312 -5.457031 3.46875 -5.5625 L 3.5 -5.84375 C 3.507812 -5.976562 3.488281 -6.082031 3.4375 -6.15625 C 3.382812 -6.226562 3.3125 -6.265625 3.21875 -6.265625 C 3.101562 -6.265625 3.007812 -6.226562 2.9375 -6.15625 C 2.863281 -6.082031 2.820312 -5.976562 2.8125 -5.84375 L 2.359375 -2.171875 C 2.347656 -2.046875 2.363281 -1.941406 2.40625 -1.859375 C 2.457031 -1.785156 2.539062 -1.75 2.65625 -1.75 C 2.757812 -1.75 2.847656 -1.785156 2.921875 -1.859375 C 2.992188 -1.929688 3.035156 -2.035156 3.046875 -2.171875 L 3.078125 -2.484375 C 3.085938 -2.535156 3.109375 -2.570312 3.140625 -2.59375 C 3.179688 -2.625 3.222656 -2.640625 3.265625 -2.640625 L 5.015625 -2.578125 C 5.078125 -2.578125 5.117188 -2.5625 5.140625 -2.53125 C 5.171875 -2.5 5.179688 -2.453125 5.171875 -2.390625 L 5.15625 -2.34375 C 5.0625 -1.601562 4.765625 -1.007812 4.265625 -0.5625 C 3.765625 -0.125 3.148438 0.09375 2.421875 0.09375 Z M 2.421875 0.09375 "/></g></g></g><g fill="#000000" fill-opacity="1"><g transform="translate(72.341986, 20.030124)"><g><path d="M 0.234375 0 C 0.179688 0 0.140625 -0.015625 0.109375 -0.046875 C 0.0859375 -0.078125 0.0820312 -0.117188 0.09375 -0.171875 L 1.03125 -7.859375 C 1.039062 -7.910156 1.0625 -7.953125 1.09375 -7.984375 C 1.125 -8.015625 1.164062 -8.03125 1.21875 -8.03125 L 2.984375 -8.03125 C 3.023438 -8.03125 3.054688 -8.015625 3.078125 -7.984375 C 3.109375 -7.953125 3.125 -7.910156 3.125 -7.859375 L 2.171875 -0.171875 C 2.171875 -0.117188 2.148438 -0.078125 2.109375 -0.046875 C 2.078125 -0.015625 2.039062 0 2 0 Z M 0.234375 0 "/></g></g></g><g fill="#000000" fill-opacity="1"><g transform="translate(75.014787, 20.030124)"><g><path d="M 2.453125 0.09375 C 1.773438 0.09375 1.238281 -0.0859375 0.84375 -0.453125 C 0.457031 -0.828125 0.265625 -1.332031 0.265625 -1.96875 C 0.265625 -2.050781 0.269531 -2.179688 0.28125 -2.359375 L 0.703125 -5.671875 C 0.796875 -6.421875 1.09375 -7.015625 1.59375 -7.453125 C 2.09375 -7.898438 2.71875 -8.125 3.46875 -8.125 C 4.132812 -8.125 4.664062 -7.9375 5.0625 -7.5625 C 5.457031 -7.1875 5.65625 -6.6875 5.65625 -6.0625 C 5.65625 -5.976562 5.644531 -5.847656 5.625 -5.671875 L 5.234375 -2.359375 C 5.140625 -1.609375 4.835938 -1.007812 4.328125 -0.5625 C 3.828125 -0.125 3.203125 0.09375 2.453125 0.09375 Z M 2.6875 -1.75 C 2.800781 -1.75 2.894531 -1.796875 2.96875 -1.890625 C 3.050781 -1.984375 3.101562 -2.109375 3.125 -2.265625 L 3.5625 -5.75 C 3.570312 -5.914062 3.550781 -6.039062 3.5 -6.125 C 3.445312 -6.21875 3.363281 -6.265625 3.25 -6.265625 C 3.125 -6.265625 3.019531 -6.21875 2.9375 -6.125 C 2.863281 -6.039062 2.816406 -5.914062 2.796875 -5.75 L 2.375 -2.265625 C 2.363281 -2.234375 2.359375 -2.191406 2.359375 -2.140625 C 2.359375 -2.023438 2.382812 -1.929688 2.4375 -1.859375 C 2.5 -1.785156 2.582031 -1.75 2.6875 -1.75 Z M 2.6875 -1.75 "/></g></g></g><g fill="#d32f23" fill-opacity="0.4196"><g transform="translate(54.472419, 29.466034)"><g><path d="M 3.625 -8.046875 C 4.1875 -8.046875 4.628906 -7.859375 4.953125 -7.484375 C 5.273438 -7.117188 5.4375 -6.632812 5.4375 -6.03125 C 5.4375 -5.84375 5.425781 -5.695312 5.40625 -5.59375 C 5.320312 -4.882812 5.066406 -4.316406 4.640625 -3.890625 C 4.222656 -3.460938 3.710938 -3.25 3.109375 -3.25 L 2.28125 -3.25 C 2.25 -3.25 2.226562 -3.226562 2.21875 -3.1875 L 1.84375 -0.140625 C 1.832031 -0.0976562 1.8125 -0.0625 1.78125 -0.03125 C 1.757812 -0.0078125 1.726562 0 1.6875 0 L 0.390625 0 C 0.347656 0 0.316406 -0.0078125 0.296875 -0.03125 C 0.273438 -0.0625 0.269531 -0.0976562 0.28125 -0.140625 L 1.234375 -7.90625 C 1.234375 -7.9375 1.242188 -7.96875 1.265625 -8 C 1.296875 -8.03125 1.332031 -8.046875 1.375 -8.046875 Z M 2.921875 -4.5 C 3.191406 -4.5 3.414062 -4.613281 3.59375 -4.84375 C 3.769531 -5.070312 3.859375 -5.390625 3.859375 -5.796875 C 3.859375 -6.054688 3.796875 -6.257812 3.671875 -6.40625 C 3.554688 -6.5625 3.394531 -6.640625 3.1875 -6.640625 L 2.6875 -6.640625 C 2.65625 -6.640625 2.640625 -6.617188 2.640625 -6.578125 L 2.390625 -4.5625 C 2.390625 -4.519531 2.40625 -4.5 2.4375 -4.5 Z M 2.921875 -4.5 "/></g></g></g><g fill="#d32f23" fill-opacity="0.4196"><g transform="translate(59.645951, 29.466034)"><g><path d="M 3.53125 0 C 3.445312 0 3.40625 -0.0390625 3.40625 -0.125 L 3.359375 -1.234375 C 3.367188 -1.242188 3.363281 -1.253906 3.34375 -1.265625 C 3.332031 -1.273438 3.316406 -1.28125 3.296875 -1.28125 L 1.890625 -1.28125 C 1.847656 -1.28125 1.828125 -1.265625 1.828125 -1.234375 L 1.5 -0.125 C 1.476562 -0.0390625 1.425781 0 1.34375 0 L 0.046875 0 C -0.046875 0 -0.078125 -0.0507812 -0.046875 -0.15625 L 2.53125 -7.90625 C 2.550781 -7.988281 2.601562 -8.03125 2.6875 -8.03125 L 4.203125 -8.03125 C 4.273438 -8.03125 4.316406 -7.988281 4.328125 -7.90625 L 5 -0.15625 L 5 -0.109375 C 5 -0.0351562 4.957031 0 4.875 0 Z M 2.21875 -2.59375 C 2.195312 -2.550781 2.207031 -2.53125 2.25 -2.53125 L 3.25 -2.53125 C 3.28125 -2.53125 3.296875 -2.550781 3.296875 -2.59375 L 3.171875 -5.71875 C 3.160156 -5.738281 3.144531 -5.75 3.125 -5.75 C 3.113281 -5.75 3.101562 -5.738281 3.09375 -5.71875 Z M 2.21875 -2.59375 "/></g></g></g><g fill="#d32f23" fill-opacity="0.4196"><g transform="translate(65.014494, 29.466034)"><g><path d="M 5.1875 -6.78125 C 5.175781 -6.738281 5.15625 -6.703125 5.125 -6.671875 C 5.101562 -6.648438 5.070312 -6.640625 5.03125 -6.640625 L 2.703125 -6.640625 C 2.671875 -6.640625 2.65625 -6.617188 2.65625 -6.578125 L 2.421875 -4.765625 C 2.421875 -4.734375 2.4375 -4.71875 2.46875 -4.71875 L 3.8125 -4.71875 C 3.84375 -4.71875 3.867188 -4.703125 3.890625 -4.671875 C 3.921875 -4.648438 3.929688 -4.617188 3.921875 -4.578125 L 3.78125 -3.46875 C 3.769531 -3.425781 3.75 -3.390625 3.71875 -3.359375 C 3.695312 -3.335938 3.671875 -3.328125 3.640625 -3.328125 L 2.3125 -3.328125 C 2.257812 -3.328125 2.234375 -3.304688 2.234375 -3.265625 L 2.015625 -1.4375 C 2.003906 -1.40625 2.019531 -1.390625 2.0625 -1.390625 L 4.375 -1.390625 C 4.414062 -1.390625 4.445312 -1.375 4.46875 -1.34375 C 4.5 -1.320312 4.507812 -1.289062 4.5 -1.25 L 4.375 -0.140625 C 4.363281 -0.0976562 4.34375 -0.0625 4.3125 -0.03125 C 4.289062 -0.0078125 4.257812 0 4.21875 0 L 0.40625 0 C 0.363281 0 0.332031 -0.0078125 0.3125 -0.03125 C 0.289062 -0.0625 0.28125 -0.0976562 0.28125 -0.140625 L 1.234375 -7.890625 C 1.242188 -7.929688 1.257812 -7.960938 1.28125 -7.984375 C 1.3125 -8.015625 1.347656 -8.03125 1.390625 -8.03125 L 5.203125 -8.03125 C 5.242188 -8.03125 5.273438 -8.015625 5.296875 -7.984375 C 5.316406 -7.960938 5.328125 -7.929688 5.328125 -7.890625 Z M 5.1875 -6.78125 "/></g></g></g><g fill="#d32f23" fill-opacity="0.4196"><g transform="translate(69.889773, 29.466034)"><g><path d="M 0.40625 0 C 0.363281 0 0.332031 -0.0078125 0.3125 -0.03125 C 0.289062 -0.0625 0.28125 -0.0976562 0.28125 -0.140625 L 1.234375 -7.890625 C 1.242188 -7.929688 1.257812 -7.960938 1.28125 -7.984375 C 1.3125 -8.015625 1.347656 -8.03125 1.390625 -8.03125 L 3.390625 -8.03125 C 4.015625 -8.03125 4.503906 -7.859375 4.859375 -7.515625 C 5.210938 -7.171875 5.390625 -6.710938 5.390625 -6.140625 C 5.390625 -6.066406 5.382812 -5.953125 5.375 -5.796875 L 4.921875 -2.21875 C 4.835938 -1.550781 4.566406 -1.015625 4.109375 -0.609375 C 3.648438 -0.203125 3.082031 0 2.40625 0 Z M 2.015625 -1.4375 C 2.003906 -1.40625 2.019531 -1.390625 2.0625 -1.390625 L 2.5625 -1.40625 C 2.757812 -1.40625 2.929688 -1.488281 3.078125 -1.65625 C 3.234375 -1.832031 3.332031 -2.054688 3.375 -2.328125 L 3.78125 -5.703125 C 3.789062 -5.742188 3.796875 -5.804688 3.796875 -5.890625 C 3.796875 -6.117188 3.742188 -6.300781 3.640625 -6.4375 C 3.535156 -6.570312 3.390625 -6.640625 3.203125 -6.640625 L 2.703125 -6.640625 C 2.671875 -6.640625 2.65625 -6.617188 2.65625 -6.578125 Z M 2.015625 -1.4375 "/></g></g></g><g fill="#d32f23" fill-opacity="0.4196"><g transform="translate(75.189487, 29.466034)"><g><path d="M 0.40625 0 C 0.363281 0 0.332031 -0.0078125 0.3125 -0.03125 C 0.289062 -0.0625 0.28125 -0.0976562 0.28125 -0.140625 L 1.234375 -7.890625 C 1.242188 -7.929688 1.257812 -7.960938 1.28125 -7.984375 C 1.3125 -8.015625 1.347656 -8.03125 1.390625 -8.03125 L 2.6875 -8.03125 C 2.769531 -8.03125 2.8125 -7.984375 2.8125 -7.890625 L 1.859375 -0.140625 C 1.847656 -0.0976562 1.828125 -0.0625 1.796875 -0.03125 C 1.765625 -0.0078125 1.734375 0 1.703125 0 Z M 0.40625 0 "/></g></g></g><g fill="#d32f23" fill-opacity="0.4196"><g transform="translate(77.747573, 29.466034)"><g><path d="M 3.53125 0 C 3.445312 0 3.40625 -0.0390625 3.40625 -0.125 L 3.359375 -1.234375 C 3.367188 -1.242188 3.363281 -1.253906 3.34375 -1.265625 C 3.332031 -1.273438 3.316406 -1.28125 3.296875 -1.28125 L 1.890625 -1.28125 C 1.847656 -1.28125 1.828125 -1.265625 1.828125 -1.234375 L 1.5 -0.125 C 1.476562 -0.0390625 1.425781 0 1.34375 0 L 0.046875 0 C -0.046875 0 -0.078125 -0.0507812 -0.046875 -0.15625 L 2.53125 -7.90625 C 2.550781 -7.988281 2.601562 -8.03125 2.6875 -8.03125 L 4.203125 -8.03125 C 4.273438 -8.03125 4.316406 -7.988281 4.328125 -7.90625 L 5 -0.15625 L 5 -0.109375 C 5 -0.0351562 4.957031 0 4.875 0 Z M 2.21875 -2.59375 C 2.195312 -2.550781 2.207031 -2.53125 2.25 -2.53125 L 3.25 -2.53125 C 3.28125 -2.53125 3.296875 -2.550781 3.296875 -2.59375 L 3.171875 -5.71875 C 3.160156 -5.738281 3.144531 -5.75 3.125 -5.75 C 3.113281 -5.75 3.101562 -5.738281 3.09375 -5.71875 Z M 2.21875 -2.59375 "/></g></g></g><g fill="#ff3847" fill-opacity="1"><g transform="translate(54.131394, 29.158973)"><g><path d="M 3.625 -8.046875 C 4.1875 -8.046875 4.628906 -7.859375 4.953125 -7.484375 C 5.273438 -7.117188 5.4375 -6.632812 5.4375 -6.03125 C 5.4375 -5.84375 5.425781 -5.695312 5.40625 -5.59375 C 5.320312 -4.882812 5.066406 -4.316406 4.640625 -3.890625 C 4.222656 -3.460938 3.710938 -3.25 3.109375 -3.25 L 2.28125 -3.25 C 2.25 -3.25 2.226562 -3.226562 2.21875 -3.1875 L 1.84375 -0.140625 C 1.832031 -0.0976562 1.8125 -0.0625 1.78125 -0.03125 C 1.757812 -0.0078125 1.726562 0 1.6875 0 L 0.390625 0 C 0.347656 0 0.316406 -0.0078125 0.296875 -0.03125 C 0.273438 -0.0625 0.269531 -0.0976562 0.28125 -0.140625 L 1.234375 -7.90625 C 1.234375 -7.9375 1.242188 -7.96875 1.265625 -8 C 1.296875 -8.03125 1.332031 -8.046875 1.375 -8.046875 Z M 2.921875 -4.5 C 3.191406 -4.5 3.414062 -4.613281 3.59375 -4.84375 C 3.769531 -5.070312 3.859375 -5.390625 3.859375 -5.796875 C 3.859375 -6.054688 3.796875 -6.257812 3.671875 -6.40625 C 3.554688 -6.5625 3.394531 -6.640625 3.1875 -6.640625 L 2.6875 -6.640625 C 2.65625 -6.640625 2.640625 -6.617188 2.640625 -6.578125 L 2.390625 -4.5625 C 2.390625 -4.519531 2.40625 -4.5 2.4375 -4.5 Z M 2.921875 -4.5 "/></g></g></g><g fill="#ff3847" fill-opacity="1"><g transform="translate(59.304926, 29.158973)"><g><path d="M 3.53125 0 C 3.445312 0 3.40625 -0.0390625 3.40625 -0.125 L 3.359375 -1.234375 C 3.367188 -1.242188 3.363281 -1.253906 3.34375 -1.265625 C 3.332031 -1.273438 3.316406 -1.28125 3.296875 -1.28125 L 1.890625 -1.28125 C 1.847656 -1.28125 1.828125 -1.265625 1.828125 -1.234375 L 1.5 -0.125 C 1.476562 -0.0390625 1.425781 0 1.34375 0 L 0.046875 0 C -0.046875 0 -0.078125 -0.0507812 -0.046875 -0.15625 L 2.53125 -7.90625 C 2.550781 -7.988281 2.601562 -8.03125 2.6875 -8.03125 L 4.203125 -8.03125 C 4.273438 -8.03125 4.316406 -7.988281 4.328125 -7.90625 L 5 -0.15625 L 5 -0.109375 C 5 -0.0351562 4.957031 0 4.875 0 Z M 2.21875 -2.59375 C 2.195312 -2.550781 2.207031 -2.53125 2.25 -2.53125 L 3.25 -2.53125 C 3.28125 -2.53125 3.296875 -2.550781 3.296875 -2.59375 L 3.171875 -5.71875 C 3.160156 -5.738281 3.144531 -5.75 3.125 -5.75 C 3.113281 -5.75 3.101562 -5.738281 3.09375 -5.71875 Z M 2.21875 -2.59375 "/></g></g></g><g fill="#ff3847" fill-opacity="1"><g transform="translate(64.673469, 29.158973)"><g><path d="M 5.1875 -6.78125 C 5.175781 -6.738281 5.15625 -6.703125 5.125 -6.671875 C 5.101562 -6.648438 5.070312 -6.640625 5.03125 -6.640625 L 2.703125 -6.640625 C 2.671875 -6.640625 2.65625 -6.617188 2.65625 -6.578125 L 2.421875 -4.765625 C 2.421875 -4.734375 2.4375 -4.71875 2.46875 -4.71875 L 3.8125 -4.71875 C 3.84375 -4.71875 3.867188 -4.703125 3.890625 -4.671875 C 3.921875 -4.648438 3.929688 -4.617188 3.921875 -4.578125 L 3.78125 -3.46875 C 3.769531 -3.425781 3.75 -3.390625 3.71875 -3.359375 C 3.695312 -3.335938 3.671875 -3.328125 3.640625 -3.328125 L 2.3125 -3.328125 C 2.257812 -3.328125 2.234375 -3.304688 2.234375 -3.265625 L 2.015625 -1.4375 C 2.003906 -1.40625 2.019531 -1.390625 2.0625 -1.390625 L 4.375 -1.390625 C 4.414062 -1.390625 4.445312 -1.375 4.46875 -1.34375 C 4.5 -1.320312 4.507812 -1.289062 4.5 -1.25 L 4.375 -0.140625 C 4.363281 -0.0976562 4.34375 -0.0625 4.3125 -0.03125 C 4.289062 -0.0078125 4.257812 0 4.21875 0 L 0.40625 0 C 0.363281 0 0.332031 -0.0078125 0.3125 -0.03125 C 0.289062 -0.0625 0.28125 -0.0976562 0.28125 -0.140625 L 1.234375 -7.890625 C 1.242188 -7.929688 1.257812 -7.960938 1.28125 -7.984375 C 1.3125 -8.015625 1.347656 -8.03125 1.390625 -8.03125 L 5.203125 -8.03125 C 5.242188 -8.03125 5.273438 -8.015625 5.296875 -7.984375 C 5.316406 -7.960938 5.328125 -7.929688 5.328125 -7.890625 Z M 5.1875 -6.78125 "/></g></g></g><g fill="#ff3847" fill-opacity="1"><g transform="translate(69.548748, 29.158973)"><g><path d="M 0.40625 0 C 0.363281 0 0.332031 -0.0078125 0.3125 -0.03125 C 0.289062 -0.0625 0.28125 -0.0976562 0.28125 -0.140625 L 1.234375 -7.890625 C 1.242188 -7.929688 1.257812 -7.960938 1.28125 -7.984375 C 1.3125 -8.015625 1.347656 -8.03125 1.390625 -8.03125 L 3.390625 -8.03125 C 4.015625 -8.03125 4.503906 -7.859375 4.859375 -7.515625 C 5.210938 -7.171875 5.390625 -6.710938 5.390625 -6.140625 C 5.390625 -6.066406 5.382812 -5.953125 5.375 -5.796875 L 4.921875 -2.21875 C 4.835938 -1.550781 4.566406 -1.015625 4.109375 -0.609375 C 3.648438 -0.203125 3.082031 0 2.40625 0 Z M 2.015625 -1.4375 C 2.003906 -1.40625 2.019531 -1.390625 2.0625 -1.390625 L 2.5625 -1.40625 C 2.757812 -1.40625 2.929688 -1.488281 3.078125 -1.65625 C 3.234375 -1.832031 3.332031 -2.054688 3.375 -2.328125 L 3.78125 -5.703125 C 3.789062 -5.742188 3.796875 -5.804688 3.796875 -5.890625 C 3.796875 -6.117188 3.742188 -6.300781 3.640625 -6.4375 C 3.535156 -6.570312 3.390625 -6.640625 3.203125 -6.640625 L 2.703125 -6.640625 C 2.671875 -6.640625 2.65625 -6.617188 2.65625 -6.578125 Z M 2.015625 -1.4375 "/></g></g></g><g fill="#ff3847" fill-opacity="1"><g transform="translate(74.848462, 29.158973)"><g><path d="M 0.40625 0 C 0.363281 0 0.332031 -0.0078125 0.3125 -0.03125 C 0.289062 -0.0625 0.28125 -0.0976562 0.28125 -0.140625 L 1.234375 -7.890625 C 1.242188 -7.929688 1.257812 -7.960938 1.28125 -7.984375 C 1.3125 -8.015625 1.347656 -8.03125 1.390625 -8.03125 L 2.6875 -8.03125 C 2.769531 -8.03125 2.8125 -7.984375 2.8125 -7.890625 L 1.859375 -0.140625 C 1.847656 -0.0976562 1.828125 -0.0625 1.796875 -0.03125 C 1.765625 -0.0078125 1.734375 0 1.703125 0 Z M 0.40625 0 "/></g></g></g><g fill="#ff3847" fill-opacity="1"><g transform="translate(77.406548, 29.158973)"><g><path d="M 3.53125 0 C 3.445312 0 3.40625 -0.0390625 3.40625 -0.125 L 3.359375 -1.234375 C 3.367188 -1.242188 3.363281 -1.253906 3.34375 -1.265625 C 3.332031 -1.273438 3.316406 -1.28125 3.296875 -1.28125 L 1.890625 -1.28125 C 1.847656 -1.28125 1.828125 -1.265625 1.828125 -1.234375 L 1.5 -0.125 C 1.476562 -0.0390625 1.425781 0 1.34375 0 L 0.046875 0 C -0.046875 0 -0.078125 -0.0507812 -0.046875 -0.15625 L 2.53125 -7.90625 C 2.550781 -7.988281 2.601562 -8.03125 2.6875 -8.03125 L 4.203125 -8.03125 C 4.273438 -8.03125 4.316406 -7.988281 4.328125 -7.90625 L 5 -0.15625 L 5 -0.109375 C 5 -0.0351562 4.957031 0 4.875 0 Z M 2.21875 -2.59375 C 2.195312 -2.550781 2.207031 -2.53125 2.25 -2.53125 L 3.25 -2.53125 C 3.28125 -2.53125 3.296875 -2.550781 3.296875 -2.59375 L 3.171875 -5.71875 C 3.160156 -5.738281 3.144531 -5.75 3.125 -5.75 C 3.113281 -5.75 3.101562 -5.738281 3.09375 -5.71875 Z M 2.21875 -2.59375 "/></g></g></g></svg>